<svg
    width="24"
    height="24"
    viewBox="0 0 24 24"
    fill="none"
    xmlns="http://www.w3.org/2000/svg"
>
    <path
        d="M8 4.2V2.6C8 1.72 8.72 1 9.6 1H14.4C15.28 1 16 1.72 16 2.6V4.2C16 5.08 15.28 5.8 14.4 5.8H9.6C8.72 5.8 8 5.08 8 4.2ZM20.12 3.28C19.55 2.71 18.8 2.4 18 2.4H17.98C17.98 2.47 18 2.53 18 2.6V4.2C18 6.19 16.39 7.8 14.4 7.8H9.6C7.61 7.8 6 6.19 6 4.2V2.6C6 2.53 6.02 2.47 6.02 2.4H6C5.2 2.4 4.45 2.71 3.88 3.28C3.31 3.85 3 4.6 3 5.4V19.4C3 20.2 3.31 20.95 3.88 21.52C4.45 22.09 5.2 22.4 6 22.4H18C18.8 22.4 19.55 22.09 20.12 21.52C20.69 20.95 21 20.2 21 19.4V5.4C21 4.6 20.69 3.85 20.12 3.28Z"
        fill="currentColor"
    />
</svg>
