<svg
    width="24"
    height="24"
    viewBox="0 0 24 24"
    fill="none"
    xmlns="http://www.w3.org/2000/svg"
>
    <path
        d="M12 1C5.93 1 1 5.93 1 12C1 18.07 5.93 23 12 23C18.07 23 23 18.07 23 12C23 5.93 18.07 1 12 1ZM16.89 14.45C16.71 14.8 16.36 15 15.99 15C15.84 15 15.69 14.97 15.54 14.89L11.54 12.89C11.2 12.72 10.99 12.37 10.99 12V6C10.99 5.45 11.44 5 11.99 5C12.54 5 12.99 5.45 12.99 6V11.38L16.44 13.1C16.93 13.35 17.13 13.95 16.89 14.44V14.45Z"
        fill="currentColor"
    />
</svg>
