<svg
    width="24"
    height="24"
    viewBox="0 0 24 24"
    fill="none"
    xmlns="http://www.w3.org/2000/svg"
>
    <path
        d="M21.5527 16.1055C22.0467 15.8585 22.6475 16.0587 22.8945 16.5527C23.1415 17.0467 22.9412 17.6475 22.4473 17.8945L12.4473 22.8945C12.1657 23.0353 11.8343 23.0353 11.5527 22.8945L1.55273 17.8945C1.05876 17.6475 0.858479 17.0467 1.10547 16.5527C1.35246 16.0587 1.95329 15.8585 2.44727 16.1055L12 20.8818L21.5527 16.1055ZM21.5527 11.1055C22.0467 10.8585 22.6475 11.0587 22.8945 11.5527C23.1415 12.0467 22.9412 12.6475 22.4473 12.8945L12.4473 17.8945C12.1657 18.0353 11.8343 18.0353 11.5527 17.8945L1.55273 12.8945C1.05876 12.6475 0.858479 12.0467 1.10547 11.5527C1.35246 11.0587 1.95329 10.8585 2.44727 11.1055L12 15.8818L21.5527 11.1055ZM11.6602 1.05956C11.9161 0.967041 12.2008 0.982235 12.4473 1.10546L22.4473 6.10546C22.786 6.27485 23 6.62122 23 6.99999C23 7.37877 22.786 7.72513 22.4473 7.89452L12.4473 12.8945C12.1657 13.0353 11.8343 13.0353 11.5527 12.8945L1.55273 7.89452C1.21395 7.72513 1 7.37877 1 6.99999C1 6.62122 1.21395 6.27485 1.55273 6.10546L11.5527 1.10546L11.6602 1.05956Z"
        fill="currentColor"
    />
</svg>
